<svg xmlns="http://www.w3.org/2000/svg" version="1.1" xmlns:xlink="http://www.w3.org/1999/xlink" xmlns:svgjs="http://svgjs.dev/svgjs" width="1500" height="564" viewBox="0 0 1500 564"><g transform="matrix(1,0,0,1,-0.9090909090909918,0.2360627223141023)"><svg viewBox="0 0 396 149" data-background-color="#fefee2" preserveAspectRatio="xMidYMid meet" height="564" width="1500" xmlns="http://www.w3.org/2000/svg" xmlns:xlink="http://www.w3.org/1999/xlink"><g id="tight-bounds" transform="matrix(1,0,0,1,0.2400000000000091,-0.06236408798723403)"><svg viewBox="0 0 395.52 149.12472817597447" height="149.12472817597447" width="395.52"><g><svg viewBox="0 0 395.52 149.12472817597447" height="149.12472817597447" width="395.52"><g transform="matrix(1,0,0,1,0,92.16506460013693)"><svg viewBox="0 0 395.52 56.959663575837546" height="56.959663575837546" width="395.52"><g id="textblocktransform"><svg viewBox="0 0 395.52 56.959663575837546" height="56.959663575837546" width="395.52" id="textblock"><g><svg viewBox="0 0 395.52 56.959663575837546" height="56.959663575837546" width="395.52"><g transform="matrix(1,0,0,1,0,0)"><svg width="395.52" viewBox="2.98 -37.7 279.79999999999995 40.30666666666667" height="56.959663575837546" data-palette-color="#afafe1"><path d="M22.22-27.49L22.22-27.49Q22.22-26.95 22.44-26.59 22.66-26.22 22.66-25.93L22.66-25.93Q22.56-25.44 22.85-24.78 23.14-24.12 23.14-23.44L23.14-23.44Q23.05-23.14 22.39-22.68 21.73-22.22 20.92-21.68 20.12-21.14 19.36-20.63 18.6-20.12 18.31-19.82L18.31-19.82Q18.55-19.43 18.92-19.19 19.29-18.95 19.63-18.7L19.63-18.7Q19.92-18.46 20.48-17.99 21.04-17.53 21.66-16.99 22.27-16.46 22.78-15.97 23.29-15.48 23.44-15.23L23.44-15.23Q23.54-15.19 23.61-14.89 23.68-14.6 23.73-14.23 23.78-13.87 23.8-13.53 23.83-13.18 23.83-13.09L23.83-13.09Q23.78-12.55 23.85-12.3 23.93-12.06 24-11.79 24.07-11.52 24.12-11.28 24.17-11.04 24.17-11.04L24.17-11.04Q24.17-10.74 23.9-10.5 23.63-10.25 23.39-10.06L23.39-10.06Q23.14-9.86 22.92-9.67 22.71-9.47 22.46-9.23L22.46-9.23Q22.17-8.98 21.8-8.76 21.44-8.54 21.14-8.3L21.14-8.3Q20.95-8.2 20.8-8.03 20.65-7.86 20.51-7.76L20.51-7.76Q20.07-7.37 19.53-7.01 18.99-6.64 18.51-6.35L18.51-6.35Q17.97-6.01 17.48-5.64 16.99-5.27 16.46-4.88L16.46-4.88Q15.72-4.44 15.01-4.03 14.31-3.61 13.62-3.17L13.62-3.17Q13.28-2.93 12.96-2.69 12.65-2.44 12.3-2.25L12.3-2.25Q11.33-1.71 10.35-1.12 9.38-0.54 8.45 0.15L8.45 0.15Q7.67 0.34 7.32 0.46 6.98 0.59 6.64 0.59L6.64 0.59Q6.35 0.59 6.27 0.37 6.2 0.15 6.01 0.15L6.01 0.15Q5.27 0.24 5.2 0.17 5.13 0.1 4.98 0L4.98 0Q4.25 0.1 3.76 0L3.76 0Q3.61-0.24 3.56-0.61 3.52-0.98 3.27-1.22L3.27-1.22Q3.37-1.71 3.3-2.15 3.22-2.59 3.32-3.03L3.32-3.03Q3.17-3.61 3.17-4.1L3.17-4.1Q3.17-4.74 3.32-5.42L3.32-5.42Q3.17-5.86 3.17-6.3L3.17-6.3Q3.17-6.69 3.22-7.08 3.27-7.47 3.27-7.86L3.27-7.86Q3.27-8.35 3.08-8.74L3.08-8.74Q3.08-9.62 3.05-10.47 3.03-11.33 3.03-12.21L3.03-12.21Q3.03-12.6 3.03-12.99 3.03-13.38 3.08-13.82L3.08-13.82Q3.03-14.06 3.03-14.55L3.03-14.55Q3.03-14.84 3.13-15.06 3.22-15.28 3.22-15.53L3.22-15.53Q3.22-16.06 3.15-16.55 3.08-17.04 3.08-17.58L3.08-17.58Q3.08-18.07 3.15-18.51 3.22-18.95 3.22-19.43L3.22-19.43Q3.08-19.63 3.03-19.87 2.98-20.12 2.98-20.36L2.98-20.36Q2.98-20.56 3.08-20.95L3.08-20.95Q3.08-21.34 3.03-21.78 2.98-22.22 2.98-22.61L2.98-22.61Q2.98-22.8 3-22.95 3.03-23.1 3.08-23.29L3.08-23.29Q2.98-23.63 2.98-23.97 2.98-24.32 2.98-24.66L2.98-24.66Q2.98-25.1 3.03-25.56 3.08-26.03 3.08-26.46L3.08-26.46Q3.03-27.2 3.1-27.61 3.17-28.03 3.22-28.47L3.22-28.47 3.22-31.25Q3.22-31.64 3.13-32.1 3.03-32.57 3.03-33.01L3.03-33.01Q3.03-33.25 3.08-33.74 3.13-34.23 3.22-34.47L3.22-34.47Q3.91-35.5 4.83-35.64L4.83-35.64Q5.03-35.74 5.13-35.91 5.22-36.08 5.57-36.08L5.57-36.08Q6.15-36.57 6.35-36.84 6.54-37.11 6.84-37.35L6.84-37.35Q6.98-37.35 7.1-37.43 7.23-37.5 7.42-37.5L7.42-37.5Q7.76-37.4 7.98-37.3 8.2-37.21 8.45-37.16L8.45-37.16Q9.42-36.43 10.38-35.72 11.33-35.01 12.3-34.23L12.3-34.23Q12.74-33.84 13.16-33.45 13.57-33.06 14.01-32.71L14.01-32.71Q14.26-32.57 14.55-32.42 14.84-32.28 15.09-32.08L15.09-32.08Q15.63-31.74 16.16-31.37 16.7-31.01 17.24-30.66L17.24-30.66 20.75-28.47Q21.14-28.22 21.51-27.98 21.88-27.73 22.22-27.49ZM15.23-25.39L15.23-25.39Q14.5-25.73 13.84-26.22 13.18-26.71 12.45-26.95L12.45-26.95Q12.06-27.34 11.62-27.49 11.18-27.64 10.79-27.93L10.79-27.93Q10.35-28.32 10.01-28.61 9.67-28.91 9.13-29.15L9.13-29.15Q8.89-27.64 8.76-26.2 8.64-24.76 8.64-23.29L8.64-23.29Q8.64-21.78 8.94-20.41L8.94-20.41Q9.47-20.65 9.96-20.95 10.45-21.24 10.94-21.53L10.94-21.53Q11.13-21.63 11.3-21.73 11.47-21.83 11.72-21.92L11.72-21.92Q11.96-22.12 12.21-22.31 12.45-22.51 12.7-22.66L12.7-22.66Q13.23-23.05 13.75-23.36 14.26-23.68 14.79-24.07L14.79-24.07Q15.04-24.27 15.33-24.39 15.63-24.51 15.92-24.76L15.92-24.76Q15.87-24.95 15.6-25.07 15.33-25.2 15.23-25.39ZM13.82-16.26L13.82-16.26Q13.67-16.26 13.53-16.33 13.38-16.41 13.18-16.41L13.18-16.41Q12.6-16.02 12.08-15.75 11.57-15.48 11.04-15.14L11.04-15.14Q10.79-14.99 10.55-14.79 10.3-14.6 10.06-14.5L10.06-14.5Q9.42-14.11 9.08-13.84 8.74-13.57 8.54-13.18L8.54-13.18Q8.64-11.82 8.62-10.45 8.59-9.08 8.59-7.67L8.59-7.67Q8.59-7.42 8.74-7.13L8.74-7.13Q9.18-7.18 10.3-7.79 11.43-8.4 12.67-9.18 13.92-9.96 15.06-10.69 16.21-11.43 16.75-11.77L16.75-11.77Q17.14-11.87 17.65-12.16 18.16-12.45 18.26-12.84L18.26-12.84Q17.33-13.92 16.11-14.62 14.89-15.33 13.82-16.26ZM48-34.57L48-34.57Q47.46-33.59 46.77-32.28 46.09-30.96 45.7-29.98L45.7-29.98Q45.55-29.64 45.43-29.32 45.31-29 45.16-28.66L45.16-28.66Q44.92-27.93 44.55-27.27 44.19-26.61 43.89-25.88L43.89-25.88Q43.45-24.9 42.99-23.9 42.53-22.9 42.09-21.83L42.09-21.83Q41.6-20.85 41.33-20.14 41.06-19.43 40.77-18.7 40.48-17.97 40.26-17.26 40.04-16.55 39.89-15.97L39.89-15.97Q39.45-15.19 39.16-14.79L39.16-14.79Q39.06-13.92 38.96-13.04 38.86-12.16 38.86-11.23L38.86-11.23Q38.86-10.79 38.94-10.38 39.01-9.96 39.06-9.52L39.06-9.52Q39.11-8.89 39.08-8.28 39.06-7.67 39.11-7.03L39.11-7.03Q39.16-5.81 39.23-4.61 39.3-3.42 39.35-2.15L39.35-2.15Q39.4-1.27 39.28-0.66 39.16-0.05 39.21 0.59L39.21 0.59Q39.06 0.68 38.89 0.73 38.72 0.78 38.57 0.88L38.57 0.88Q38.03 0.88 37.86 0.85 37.69 0.83 37.55 0.93L37.55 0.93Q37.11 0.63 37.06 0.66 37.01 0.68 36.96 0.68L36.96 0.68Q36.37 0.49 36.33 0.39 36.28 0.29 36.13 0.2L36.13 0.2Q35.59 0.2 35.25 0.34L35.25 0.34Q35.1 0.24 35.01 0.15 34.91 0.05 34.76-0.05L34.76-0.05Q34.32-0.1 34.03-0.17 33.74-0.24 33.54-0.34L33.54-0.34Q33.4-0.73 33.23-1.03 33.05-1.32 33.05-1.81L33.05-1.81Q33.05-2.2 33.15-2.54 33.25-2.88 33.3-3.27L33.3-3.27Q33.3-3.52 33.27-3.71 33.25-3.91 33.25-4.15L33.25-4.15Q33.25-4.39 33.35-4.79L33.35-4.79Q33.2-5.91 33.23-7.15 33.25-8.4 33.25-9.52L33.25-9.52Q33.25-10.64 33.05-11.62L33.05-11.62Q33.1-12.26 33.05-12.52 33.01-12.79 33.01-13.09L33.01-13.09Q33.01-13.33 33.05-13.6 33.1-13.87 33.1-14.11L33.1-14.11Q33.1-14.16 33.03-14.62 32.96-15.09 32.86-15.6 32.76-16.11 32.66-16.58 32.57-17.04 32.57-17.14L32.57-17.14Q32.08-18.02 31.83-18.8 31.59-19.58 31.3-20.12L31.3-20.12Q31.1-20.51 30.91-20.9 30.71-21.29 30.56-21.73L30.56-21.73Q30.47-21.97 30.39-22.27 30.32-22.56 30.22-22.8L30.22-22.8Q30.03-23.19 29.86-23.66 29.68-24.12 29.44-24.41L29.44-24.41Q29.25-24.85 29.07-25.22 28.9-25.59 28.9-25.93L28.9-25.93Q28.76-26.51 28.44-26.98 28.12-27.44 27.88-27.93L27.88-27.93Q27.73-28.22 27.66-28.47 27.59-28.71 27.49-28.96L27.49-28.96Q27.39-29.15 27.22-29.44 27.05-29.74 26.85-29.88L26.85-29.88Q26.76-30.32 26.51-30.66 26.27-31.01 26.17-31.45L26.17-31.45Q25.93-31.79 25.63-32.13L25.63-32.13Q25.44-32.86 25.1-33.47 24.75-34.08 24.46-34.77L24.46-34.77Q24.66-35.79 25.58-36.04L25.58-36.04Q26.07-36.62 26.17-36.67 26.27-36.72 26.61-36.72L26.61-36.72Q26.9-36.96 27.19-37.13 27.49-37.3 27.88-37.21L27.88-37.21Q27.93-37.4 28.15-37.55 28.37-37.7 28.56-37.7L28.56-37.7Q28.85-37.7 29.07-37.4 29.29-37.11 29.54-36.96L29.54-36.96Q29.93-36.28 30.34-35.64 30.76-35.01 31.05-34.33L31.05-34.33Q31.39-33.64 31.66-32.96 31.93-32.28 32.47-31.64L32.47-31.64Q32.71-30.66 33.23-29.81 33.74-28.96 34.08-27.98L34.08-27.98Q34.32-27.39 34.64-26.83 34.96-26.27 35.2-25.63L35.2-25.63Q35.35-25.34 35.45-25.05 35.54-24.76 35.64-24.46L35.64-24.46Q35.74-24.22 35.84-23.83 35.94-23.44 36.08-23.19L36.08-23.19Q36.42-23.54 36.67-24.07L36.67-24.07Q37.01-24.76 37.38-25.37 37.74-25.98 38.03-26.66L38.03-26.66Q38.43-27.29 38.6-27.98 38.77-28.66 39.01-29.35L39.01-29.35Q39.11-29.59 39.23-29.83 39.35-30.08 39.45-30.37L39.45-30.37Q39.6-30.66 39.69-30.96 39.79-31.25 39.89-31.54L39.89-31.54Q40.23-32.47 40.65-33.37 41.06-34.28 41.5-35.21L41.5-35.21Q41.55-35.35 41.72-35.64 41.89-35.94 42.11-36.25 42.33-36.57 42.53-36.82 42.72-37.06 42.87-37.16L42.87-37.16Q42.97-37.26 43.19-37.28 43.41-37.3 43.55-37.35L43.55-37.35Q43.99-37.35 44.19-37.11L44.19-37.11Q44.77-36.87 45.07-36.77 45.36-36.67 45.51-36.33L45.51-36.33Q46.24-35.84 46.6-35.77 46.97-35.69 47.17-35.35L47.17-35.35Q47.7-35.01 47.8-34.86 47.9-34.72 48-34.57ZM70.41-34.91L70.41-34.91Q70.31-34.72 70.33-34.52 70.36-34.33 70.36-34.08L70.36-34.08Q70.26-33.5 70.36-33.5 70.45-33.5 70.45-33.4L70.45-33.4 70.11-32.91Q70.11-32.62 69.99-32.37 69.87-32.13 69.92-31.79L69.92-31.79Q69.77-31.54 69.65-31.3 69.53-31.05 69.28-30.81L69.28-30.81 68.65-30.81Q68.11-30.81 67.5-30.74 66.89-30.66 66.3-30.66L66.3-30.66Q66.21-30.66 66.06-30.69 65.91-30.71 65.77-30.71L65.77-30.71Q65.67-30.71 65.52-30.69 65.38-30.66 65.18-30.66L65.18-30.66Q64.45-30.66 63.74-30.74 63.03-30.81 62.25-30.81L62.25-30.81Q62.06-30.81 61.86-30.81 61.66-30.81 61.42-30.76L61.42-30.76Q61.37-29.93 61.35-29.08 61.32-28.22 61.32-27.34L61.32-27.34Q61.32-27.1 61.27-26.83 61.23-26.56 61.23-26.32L61.23-26.32Q61.18-25.68 61.15-25.1 61.13-24.51 61.13-23.88L61.13-23.88Q61.13-22.51 61.15-21.14 61.18-19.78 61.23-18.36L61.23-18.36Q61.27-17.63 61.32-16.94 61.37-16.26 61.37-15.53L61.37-15.53Q61.37-13.87 61.32-12.23 61.27-10.6 61.27-8.94L61.27-8.94Q61.27-8.4 61.23-7.93 61.18-7.47 61.18-6.93L61.18-6.93Q61.18-5.81 61.23-4.69 61.27-3.56 61.27-2.44L61.27-2.44Q61.27-1.9 61.25-1.37 61.23-0.83 61.23-0.29L61.23-0.29Q60.98 0.1 60.88 0.39 60.79 0.68 60.3 0.68L60.3 0.68Q59.96 0.59 59.98 0.46 60 0.34 59.91 0.24L59.91 0.24Q59.47 0.2 59.25 0.32 59.03 0.44 58.74 0.54L58.74 0.54Q58.59 0.49 58.42 0.49 58.25 0.49 58.1 0.49L58.1 0.49Q58 0.49 57.91 0.56 57.81 0.63 57.47 0.63L57.47 0.63Q57.17 0.68 57.12 0.54 57.08 0.39 56.83 0.39L56.83 0.39Q56.59 0.54 56.27 0.61 55.95 0.68 55.66 0.68L55.66 0.68Q55.37 0.49 55.39 0.32 55.41 0.15 55.32-0.05L55.32-0.05Q55.27-0.15 55.15-0.32 55.02-0.49 54.93-0.59L54.93-0.59Q55.02-1.27 55.07-1.81 55.12-2.34 55.12-2.98L55.12-2.98Q55.12-4.25 55.02-5.47 54.93-6.69 54.93-7.96L54.93-7.96Q54.93-8.35 55.02-8.79 55.12-9.23 55.12-9.72L55.12-9.72Q55.02-10.11 55.07-10.18 55.12-10.25 55.12-10.35L55.12-10.35Q55.12-10.64 55.1-10.94 55.07-11.23 55.07-11.52L55.07-11.52Q55.07-12.11 55.1-12.7 55.12-13.28 55.12-13.87L55.12-13.87Q55.12-14.11 55.1-14.38 55.07-14.65 55.07-14.89L55.07-14.89Q55.02-15.33 55.05-15.82 55.07-16.31 55.07-16.8L55.07-16.8Q55.07-19.14 55-21.44 54.93-23.73 54.93-26.07L54.93-26.07Q54.93-27.25 55.05-28.39 55.17-29.54 55.17-30.71L55.17-30.71Q55.17-30.86 55.07-31.1 54.98-31.35 54.88-31.45L54.88-31.45Q54.63-31.45 54.41-31.47 54.19-31.49 53.95-31.49L53.95-31.49Q53.41-31.49 52.92-31.35L52.92-31.35Q52-31.3 51.14-31.23 50.29-31.15 49.41-31.1L49.41-31.1Q48.82-31.15 48.7-31.13 48.58-31.1 48.43-31.1L48.43-31.1Q48.04-31.1 47.85-31.3L47.85-31.3 47.85-31.93Q47.55-32.52 47.6-32.57 47.65-32.62 47.65-32.71L47.65-32.71Q47.65-32.86 47.38-33.03 47.11-33.2 47.11-33.59L47.11-33.59Q47.07-33.98 46.92-34.18 46.77-34.38 46.77-34.57L46.77-34.57Q46.77-34.91 46.92-35.35L46.92-35.35Q47.36-35.6 47.77-35.69 48.19-35.79 48.73-35.94L48.73-35.94Q49.02-36.04 49.26-36.13 49.51-36.23 49.8-36.28L49.8-36.28Q50.14-36.33 50.48-36.33 50.83-36.33 51.17-36.38L51.17-36.38Q51.9-36.52 52.7-36.62 53.51-36.72 54.24-36.72L54.24-36.72Q54.93-36.72 55.61-36.55 56.29-36.38 56.83-36.38L56.83-36.38Q57.61-36.38 58.32-36.28 59.03-36.18 59.81-36.18L59.81-36.18Q59.91-36.18 60.13-36.11 60.35-36.04 60.64-36.04L60.64-36.04 65.38-36.04Q65.77-35.94 65.94-35.99 66.11-36.04 66.25-36.04L66.25-36.04Q66.65-36.04 66.99-35.99 67.33-35.94 67.72-35.94L67.72-35.94Q68.06-35.94 68.26-35.99L68.26-35.99Q68.65-35.94 68.99-35.77 69.33-35.6 69.77-35.6L69.77-35.6Q69.97-35.45 70.06-35.23 70.16-35.01 70.41-34.91ZM80.12-12.79L80.12-12.79Q80.22-12.55 80.83-11.77 81.44-10.99 82.22-10.06 83-9.13 83.71-8.28 84.42-7.42 84.71-7.03L84.71-7.03Q85.25-6.35 85.76-5.69 86.27-5.03 86.71-4.3L86.71-4.3 87.59-2.83Q87.98-2.34 88.3-2 88.62-1.66 88.81-1.07L88.81-1.07Q88.91-0.68 88.91-0.54L88.91-0.54Q88.91-0.2 88.66-0.05L88.66-0.05Q88.27-0.05 88.25 0.07 88.22 0.2 88.03 0.29L88.03 0.29Q87.83 0.39 87.42 0.42 87 0.44 86.76 0.44L86.76 0.44Q86.32 0.44 85.66 0.42 85 0.39 84.61 0.54L84.61 0.54Q84.51 0.59 84.32 0.68 84.12 0.78 84.03 0.78L84.03 0.78Q83.64 0.78 83.46 0.66 83.29 0.54 83 0.49L83 0.49Q82.61 0.05 82.34-0.42 82.07-0.88 81.73-1.37L81.73-1.37Q81.39-1.71 81.05-1.98 80.71-2.25 80.46-2.59L80.46-2.59Q79.73-3.66 78.95-4.69 78.17-5.71 77.34-6.69L77.34-6.69Q76.95-7.23 76.51-7.67 76.07-8.11 75.68-8.64L75.68-8.64Q75.29-9.13 74.94-9.69 74.6-10.25 74.26-10.79L74.26-10.79Q73.97-11.23 73.48-11.94 72.99-12.65 72.4-13.35 71.82-14.06 71.23-14.7 70.65-15.33 70.26-15.67L70.26-15.67Q70.21-15.97 70.01-16.14 69.82-16.31 69.57-16.46L69.57-16.46Q69.47-16.7 69.35-16.92 69.23-17.14 69.23-17.38L69.23-17.38Q69.23-17.72 69.38-18.02L69.38-18.02Q69.47-18.21 69.5-18.38 69.52-18.55 69.62-18.75L69.62-18.75Q69.87-19.29 70.28-19.8 70.7-20.31 70.94-20.9L70.94-20.9Q71.04-21.04 71.04-21.22 71.04-21.39 71.14-21.53L71.14-21.53Q71.23-21.92 71.55-22.19 71.87-22.46 72.06-22.8L72.06-22.8Q72.31-23.19 72.53-23.61 72.75-24.02 72.99-24.51L72.99-24.51Q73.72-25.73 74.53-26.88 75.33-28.03 76.16-29.2L76.16-29.2Q76.8-30.18 77.41-31.08 78.02-31.98 78.65-32.91L78.65-32.91Q79-33.35 79.39-33.94 79.78-34.52 80.24-35.11 80.71-35.69 81.19-36.18 81.68-36.67 82.17-36.96L82.17-36.96Q82.9-37.01 83.15-36.65 83.39-36.28 83.88-36.28L83.88-36.28Q84.51-36.13 84.71-35.89 84.9-35.64 85.15-35.4L85.15-35.4Q85.83-35.4 86.25-35.16 86.66-34.91 87.05-34.42L87.05-34.42Q86.91-33.89 86.61-33.47 86.32-33.06 86.08-32.62L86.08-32.62Q85.69-32.42 85.51-32.08 85.34-31.74 85-31.54L85-31.54Q84.51-30.71 83.98-29.96 83.44-29.2 82.9-28.47L82.9-28.47Q82.61-28.03 82.29-27.69 81.97-27.34 81.73-26.95L81.73-26.95Q81.63-26.81 81.56-26.64 81.49-26.46 81.39-26.32L81.39-26.32Q80.8-25.39 80.12-24.58 79.44-23.78 78.85-22.8L78.85-22.8Q78.65-22.46 78.53-22.09 78.41-21.73 78.22-21.39L78.22-21.39Q78.02-21.09 77.65-20.61 77.29-20.12 76.95-19.56 76.6-18.99 76.34-18.48 76.07-17.97 76.07-17.63L76.07-17.63Q76.12-17.38 76.68-16.67 77.24-15.97 77.95-15.16 78.65-14.36 79.29-13.65 79.92-12.94 80.12-12.79ZM83.34-21.68L83.34-21.68Q83.68-20.95 84.07-20.41L84.07-20.41Q84.22-20.21 84.42-20.07 84.61-19.92 84.71-19.68L84.71-19.68Q84.81-19.58 84.9-19.26 85-18.95 85.1-18.8L85.1-18.8Q85.25-18.41 85.69-17.92 86.13-17.43 86.13-17.04L86.13-17.04Q86.13-16.8 86.03-16.5 85.93-16.21 85.88-15.97L85.88-15.97Q85.83-15.67 85.83-15.36 85.83-15.04 85.64-14.79L85.64-14.79Q85.39-14.55 85.1-14.5 84.81-14.45 84.56-14.26L84.56-14.26Q84.47-14.16 84.27-13.92 84.07-13.67 83.88-13.38 83.68-13.09 83.51-12.82 83.34-12.55 83.34-12.4L83.34-12.4Q82.76-12.35 82.59-12.38 82.41-12.4 82.22-12.35L82.22-12.35Q81.97-12.6 81.71-12.77 81.44-12.94 81.05-13.09L81.05-13.09Q80.95-13.48 80.61-13.99 80.27-14.5 80.02-14.84L80.02-14.84 79.68-15.28Q78.95-16.31 78.34-17.26 77.73-18.21 77.43-19.38L77.43-19.38Q78.36-20.07 78.87-20.41 79.39-20.75 79.97-21.04 80.56-21.34 81.12-21.61 81.68-21.88 82.17-22.27L82.17-22.27Q82.56-22.27 82.71-22.22 82.85-22.17 82.9-22.12 82.95-22.07 83.02-21.95 83.1-21.83 83.34-21.68ZM124.26-5.62L124.26-5.62Q124.16-5.32 124.16-5.08L124.16-5.08Q124.16-4.79 124.23-4.49 124.3-4.2 124.3-3.91L124.3-3.91Q124.21-3.03 124.16-2.83L124.16-2.83Q123.86-2.59 122.96-2.27 122.06-1.95 120.81-1.64 119.57-1.32 118.13-1 116.69-0.68 115.37-0.39 114.05-0.1 112.95 0.12 111.85 0.34 111.32 0.44L111.32 0.44Q111.07 0.49 110.85 0.56 110.63 0.63 110.39 0.73L110.39 0.73Q110.14 0.78 109.9 0.76 109.66 0.73 109.41 0.83L109.41 0.83Q109.26 0.83 109.14 0.68 109.02 0.54 108.92 0.44L108.92 0.44Q108.92 0.15 108.83 0 108.73-0.15 108.61-0.24 108.48-0.34 108.39-0.46 108.29-0.59 108.29-0.88L108.29-0.88Q108.19-1.27 108.02-1.49 107.85-1.71 107.85-1.9L107.85-1.9Q107.65-2.54 107.65-3.03L107.65-3.03Q107.65-3.27 107.7-3.42 107.75-3.56 107.85-3.71L107.85-3.71Q108.14-3.81 108.29-3.96 108.43-4.1 108.68-4.2L108.68-4.2Q108.97-4.35 109.51-4.47 110.05-4.59 110.68-4.74 111.32-4.88 111.9-5.03 112.49-5.18 112.88-5.32L112.88-5.32Q113.02-5.37 113.17-5.37 113.32-5.37 113.42-5.47L113.42-5.47Q113.32-6.25 113.29-7.03 113.27-7.81 113.17-8.54L113.17-8.54Q113.17-8.89 113.12-9.23 113.07-9.57 113.07-9.86L113.07-9.86 113.12-10.89Q113.12-12.74 112.98-14.6 112.83-16.46 112.83-18.31L112.83-18.31 112.83-19.97Q112.83-20.36 112.8-20.7 112.78-21.04 112.78-21.44L112.78-21.44Q112.78-22.36 112.8-23.22 112.83-24.07 112.83-25L112.83-25 112.83-29.49Q111.76-29.74 110.83-29.47 109.9-29.2 108.92-29.1L108.92-29.1Q108.58-29.44 108.53-29.83L108.53-29.83Q108.14-30.37 108-30.52 107.85-30.66 107.65-31.35L107.65-31.35Q107.31-32.03 107.09-32.2 106.87-32.37 106.87-32.76L106.87-32.76Q106.87-33.01 106.99-33.11 107.12-33.2 107.21-33.45L107.21-33.45Q107.65-33.64 107.73-33.72 107.8-33.79 107.9-33.84L107.9-33.84Q108.39-34.18 109.02-34.33 109.66-34.47 110.24-34.67L110.24-34.67Q110.73-34.81 111.17-35.01 111.61-35.21 112.15-35.35L112.15-35.35Q112.78-35.55 113.42-35.74 114.05-35.94 114.64-36.08L114.64-36.08Q115.03-36.18 115.39-36.16 115.76-36.13 116.15-36.38L116.15-36.38Q116.78-36.28 117.49-36.4 118.2-36.52 119.03-36.72 119.86-36.91 120.64-37.06 121.42-37.21 121.81-37.3L121.81-37.3Q122.06-37.21 122.16-37.06 122.25-36.91 122.45-36.87L122.45-36.87Q122.5-36.72 122.55-36.5 122.59-36.28 122.74-36.18L122.74-36.18Q122.74-35.64 122.99-35.4L122.99-35.4Q122.94-34.91 123.16-34.3 123.38-33.69 123.38-33.15L123.38-33.15Q123.13-32.42 122.57-32.23 122.01-32.03 121.35-31.88 120.69-31.74 120.06-31.62 119.42-31.49 119.03-31.35L119.03-31.35Q119.03-30.66 119.05-29.93 119.08-29.2 119.08-28.47L119.08-28.47Q119.08-27.78 119.05-27.1 119.03-26.42 119.03-25.73L119.03-25.73Q119.03-24.71 119.01-23.63 118.98-22.56 118.98-21.48L118.98-21.48Q118.98-19.97 119.03-18.46 119.08-16.94 119.18-15.43L119.18-15.43Q119.23-15.19 119.23-14.7L119.23-14.7Q119.23-12.74 119.3-10.86 119.37-8.98 119.57-6.98L119.57-6.98Q120.2-6.93 120.54-7.18L120.54-7.18Q120.79-7.18 121.01-7.28 121.23-7.37 121.42-7.47L121.42-7.47Q121.72-7.52 122.23-7.64 122.74-7.76 122.89-7.76L122.89-7.76Q123.33-7.71 123.43-7.76L123.43-7.76Q123.57-7.47 123.86-7.32L123.86-7.32Q123.96-6.88 124.04-6.47 124.11-6.05 124.26-5.62ZM145-36.43L145-36.43Q145.79-36.52 146.2-36.3 146.62-36.08 147.06-36.04L147.06-36.04Q147.3-35.99 147.57-36.01 147.84-36.04 148.13-36.04L148.13-36.04Q148.76-36.04 149.13-35.89 149.5-35.74 149.89-35.25L149.89-35.25Q149.99-35.16 150.16-34.99 150.33-34.81 150.33-34.67L150.33-34.67Q150.33-34.28 150.13-33.98 149.94-33.69 149.94-33.15L149.94-33.15Q149.94-32.32 150.13-31.52 150.33-30.71 150.38-29.88L150.38-29.88Q150.62-26.86 150.64-23.8 150.67-20.75 150.67-17.77L150.67-17.77Q150.67-17.38 150.64-17.07 150.62-16.75 150.42-16.5L150.42-16.5 150.42-15.87Q150.38-14.6 150.47-13.31 150.57-12.01 150.57-10.74L150.57-10.74Q150.57-9.62 150.45-8.5 150.33-7.37 150.33-6.2L150.33-6.2Q150.33-5.13 150.47-4.1 150.62-3.08 150.62-2L150.62-2Q150.38-1.56 150.33-1.32 150.28-1.07 150.13-0.88L150.13-0.88Q149.99-0.78 149.81-0.83 149.64-0.88 149.55-0.73L149.55-0.73Q149.3-0.44 149.2-0.05 149.11 0.34 148.72 0.59L148.72 0.59Q148.62 1.27 148.2 1.64 147.79 2 147.59 2.59L147.59 2.59Q147.01 2.64 146.79 2.54 146.57 2.44 146.32 2.34L146.32 2.34Q146.27 1.51 146.35 1.15 146.42 0.78 146.42 0.39L146.42 0.39Q146.42-0.1 146.18-0.34 145.93-0.59 145.83-0.98L145.83-0.98Q145.3-1.32 145.1-1.44 144.91-1.56 144.76-1.76L144.76-1.76Q144.47-2.15 144.27-2.59 144.08-3.03 143.83-3.42L143.83-3.42Q143.15-4.54 142.44-5.71 141.73-6.88 140.9-8.01L140.9-8.01Q140.76-8.25 140.56-8.45 140.37-8.64 140.22-8.89L140.22-8.89Q139.39-10.21 138.66-11.57 137.92-12.94 136.95-14.16L136.95-14.16Q136.56-14.65 136.36-15.26 136.17-15.87 135.78-16.31L135.78-16.31Q135.73-16.06 135.73-15.77 135.73-15.48 135.73-15.23L135.73-15.23Q135.73-13.57 135.8-11.94 135.87-10.3 135.87-8.64L135.87-8.64Q135.87-8.3 135.8-8.03 135.73-7.76 135.73-7.42L135.73-7.42Q135.73-6.93 135.78-6.49 135.82-6.05 135.82-5.62L135.82-5.62Q135.82-5.08 135.8-4.59 135.78-4.1 135.73-3.61L135.73-3.61Q135.63-2.98 135.48-2.42 135.34-1.86 135.34-1.27L135.34-1.27Q135.34-0.93 135.41-0.63 135.48-0.34 135.48-0.1L135.48-0.1Q135.14 0.44 134.63 0.44 134.12 0.44 133.77 0.83L133.77 0.83Q133.48 0.78 133.31 0.88 133.14 0.98 132.99 0.98L132.99 0.98Q132.8 0.98 132.68 0.93 132.55 0.88 132.41 0.88L132.41 0.88Q132.16 0.88 131.92 1.12 131.67 1.37 131.43 1.37L131.43 1.37Q131.28 1.37 130.92 1.17 130.55 0.98 130.14 0.71 129.72 0.44 129.38 0.17 129.04-0.1 129.04-0.24L129.04-0.24Q128.99-0.49 128.99-0.93L128.99-0.93Q128.99-1.51 129.06-2.08 129.14-2.64 129.23-3.22L129.23-3.22Q129.38-4.88 129.38-6.52 129.38-8.15 129.38-9.81L129.38-9.81Q129.38-10.5 129.4-11.18 129.43-11.87 129.43-12.55L129.43-12.55Q129.43-14.16 129.31-15.8 129.18-17.43 129.18-19.04L129.18-19.04Q129.18-20.17 129.28-21.26 129.38-22.36 129.38-23.44L129.38-23.44Q129.38-24.27 129.33-25.05 129.28-25.83 129.28-26.66L129.28-26.66Q129.23-27.2 129.28-27.81 129.33-28.42 129.33-28.96L129.33-28.96Q129.33-29.59 129.16-30.15 128.99-30.71 128.99-31.2L128.99-31.2Q128.99-31.49 129.11-31.76 129.23-32.03 129.23-32.32L129.23-32.32Q129.23-32.71 129.11-33.11 128.99-33.5 128.99-33.89L128.99-33.89Q128.99-34.28 129.09-34.62 129.18-34.96 129.18-35.35L129.18-35.35Q129.87-35.69 130.4-35.69L130.4-35.69Q130.94-35.69 131.19-35.3L131.19-35.3Q131.19-34.42 131.28-33.96 131.38-33.5 131.43-33.01L131.43-33.01Q131.43-32.71 131.41-32.32 131.38-31.93 131.43-31.57 131.48-31.2 131.65-30.96 131.82-30.71 132.26-30.71L132.26-30.71Q132.36-30.47 132.5-30.27 132.65-30.08 132.7-29.79L132.7-29.79Q132.99-29.98 133.04-30.32 133.09-30.66 133.04-30.96L133.04-30.96Q133.29-30.86 133.48-30.88 133.68-30.91 133.87-30.81L133.87-30.81Q133.97-30.13 134.12-29.61 134.26-29.1 134.21-28.42L134.21-28.42Q135.19-27.69 135.9-26.34 136.61-25 137.24-23.93L137.24-23.93Q137.58-23.39 138.05-22.92 138.51-22.46 138.75-21.83L138.75-21.83Q139.15-21.58 139.39-21.19 139.63-20.8 139.83-20.41L139.83-20.41Q140.81-18.7 141.98-17.09 143.15-15.48 144.42-13.92L144.42-13.92Q144.47-14.26 144.47-14.58 144.47-14.89 144.47-15.23L144.47-15.23 144.42-19.63Q144.42-20.02 144.39-20.36 144.37-20.7 144.32-21.09L144.32-21.09Q144.22-22.36 144.27-23.58 144.32-24.8 144.27-26.07L144.27-26.07Q144.17-27.39 144.15-28.76 144.13-30.13 144.03-31.49L144.03-31.49Q143.98-32.32 143.93-33.15 143.88-33.98 143.88-34.81L143.88-34.81Q143.88-35.84 144.08-36.67L144.08-36.67Q144.17-36.77 144.3-36.84 144.42-36.91 144.61-36.91L144.61-36.91Q144.91-36.91 145-36.43ZM165.9-35.99L165.9-35.99Q166-35.79 166.12-35.72 166.24-35.64 166.29-35.4L166.29-35.4Q166.63-35.16 166.83-35.03 167.02-34.91 167.07-34.62L167.07-34.62Q167.51-34.28 167.59-34.18 167.66-34.08 167.71-33.94L167.71-33.94Q167.95-33.74 168.17-33.59 168.39-33.45 168.49-33.15L168.49-33.15Q168.88-32.81 168.98-32.62 169.07-32.42 169.12-32.18L169.12-32.18Q168.93-31.84 168.34-31.25 167.76-30.66 167.02-30 166.29-29.35 165.61-28.74 164.92-28.13 164.53-27.78L164.53-27.78Q164.44-27.59 164.29-27.44 164.14-27.29 164.05-27.1L164.05-27.1Q163.75-26.86 163.51-26.59 163.26-26.32 162.92-26.17L162.92-26.17Q162.43-25.49 161.55-24.83 160.68-24.17 160.38-23.54L160.38-23.54Q160.43-23.39 160.6-23.24 160.77-23.1 160.87-23L160.87-23Q161.26-22.61 161.8-22.29 162.34-21.97 162.73-21.58L162.73-21.58Q163.12-21.24 163.51-20.92 163.9-20.61 164.29-20.26L164.29-20.26Q164.48-20.07 164.78-19.68L164.78-19.68Q165.27-19.29 165.73-18.97 166.19-18.65 166.63-18.26L166.63-18.26Q167.56-17.48 168.44-16.67 169.32-15.87 170.3-15.09L170.3-15.09 170.69-14.65Q170.69-14.26 170.91-13.75 171.13-13.23 171.32-12.89L171.32-12.89Q171.22-12.4 171.34-12.28 171.47-12.16 171.56-12.06L171.56-12.06Q171.52-11.13 171.61-10.84L171.61-10.84Q170.78-10.11 170.08-9.5 169.37-8.89 168.83-8.3L168.83-8.3Q168.39-7.76 167.93-7.35 167.46-6.93 166.93-6.45L166.93-6.45Q166.63-6.05 166.44-5.91L166.44-5.91Q166.1-5.57 165.75-5.37L165.75-5.37Q165.17-4.83 164.61-4.35 164.05-3.86 163.51-3.37L163.51-3.37Q163.12-3.03 162.78-2.71 162.43-2.39 162.09-2L162.09-2Q161.8-1.71 161.43-1.32 161.07-0.93 160.68-0.68L160.68-0.68Q160.53-0.39 160.29-0.17 160.04 0.05 159.85 0.29L159.85 0.29Q159.5 0.49 159.21 0.68 158.92 0.88 158.53 1.07L158.53 1.07Q158.14 0.78 157.77 0.54 157.4 0.29 156.96 0.2L156.96 0.2Q156.67-0.05 156.53-0.29 156.38-0.54 155.99-0.63L155.99-0.63Q155.89-0.78 155.77-0.95 155.65-1.12 155.55-1.32L155.55-1.32Q154.96-1.37 154.62-2.05L154.62-2.05Q154.72-2.34 154.89-2.49 155.06-2.64 154.96-3.03L154.96-3.03Q155.26-3.52 155.67-3.88 156.09-4.25 156.48-4.64L156.48-4.64Q156.92-5.03 157.28-5.44 157.65-5.86 158.09-6.25L158.09-6.25Q158.33-6.49 158.58-6.71 158.82-6.93 159.11-7.18L159.11-7.18Q159.65-7.71 160.21-8.18 160.77-8.64 161.36-9.18L161.36-9.18Q162.14-9.96 162.97-10.67 163.8-11.38 164.48-12.26L164.48-12.26Q164.44-12.45 164.34-12.52 164.24-12.6 164.19-12.74L164.19-12.74Q163.41-13.48 162.65-14.18 161.9-14.89 161.02-15.43L161.02-15.43Q160.72-15.72 160.63-15.92L160.63-15.92Q159.75-16.55 158.94-17.33 158.14-18.12 157.16-18.65L157.16-18.65Q156.96-18.9 156.7-19.07 156.43-19.24 156.18-19.38L156.18-19.38Q156.04-19.63 155.87-19.8 155.7-19.97 155.45-20.07L155.45-20.07Q155.06-20.41 154.94-20.63 154.82-20.85 154.52-20.9L154.52-20.9Q154.43-21.14 154.21-21.29 153.99-21.44 153.74-21.63L153.74-21.63Q153.64-21.92 153.45-22.12L153.45-22.12Q153.4-22.51 153.5-22.68 153.6-22.85 153.64-22.95L153.64-22.95Q153.6-23.24 153.38-23.39 153.16-23.54 153.16-23.88L153.16-23.88Q153.16-24.07 153.28-24.15 153.4-24.22 153.45-24.37L153.45-24.37 153.6-25.1Q153.99-25.39 154.25-25.81 154.52-26.22 154.96-26.46L154.96-26.46Q155.45-27.2 156.18-27.69L156.18-27.69Q156.43-28.08 156.79-28.32 157.16-28.56 157.4-28.96L157.4-28.96Q157.8-29.2 158.06-29.49 158.33-29.79 158.72-30.03L158.72-30.03Q158.82-30.22 158.94-30.35 159.06-30.47 159.11-30.62L159.11-30.62Q160.43-31.88 161.43-32.81 162.43-33.74 163.51-34.67L163.51-34.67Q163.8-34.91 164.09-35.21 164.39-35.5 164.73-35.74L164.73-35.74Q164.83-35.84 164.97-35.84 165.12-35.84 165.27-35.94L165.27-35.94Q165.85-35.94 165.9-35.99ZM182.01-33.2L182.01-33.2Q182.01-32.76 181.72-32.54 181.43-32.32 181.18-31.98L181.18-31.98Q180.69-31.54 180.33-31.08 179.96-30.62 179.47-30.18L179.47-30.18Q179.28-29.98 178.94-29.66 178.59-29.35 178.23-29.03 177.86-28.71 177.49-28.47 177.13-28.22 176.88-28.22L176.88-28.22Q176.49-28.22 175.88-28.49 175.27-28.76 174.83-28.86L174.83-28.86Q174.49-28.91 174.22-28.93 173.95-28.96 173.71-29.2L173.71-29.2Q172.83-29.39 172.59-29.81 172.34-30.22 172.05-30.66L172.05-30.66Q172.05-30.86 172.2-30.91 172.34-30.96 172.44-31.1L172.44-31.1Q172.93-31.74 173.27-32.15 173.61-32.57 174.05-33.01L174.05-33.01Q174.88-33.74 175.64-34.52 176.4-35.3 177.23-35.99L177.23-35.99Q177.62-36.04 177.81-36.28 178.01-36.52 178.4-36.52L178.4-36.52Q178.79-36.52 179.06-36.28 179.33-36.04 179.55-35.72 179.77-35.4 179.98-35.08 180.2-34.77 180.5-34.62L180.5-34.62Q180.84-34.38 181.43-33.98 182.01-33.59 182.01-33.2ZM175.32-24.12L175.32-24.12Q175.66-23.93 175.83-23.61 176.01-23.29 176.35-23.14L176.35-23.14Q176.64-23 176.98-23 177.32-23 177.57-22.9L177.57-22.9Q177.76-22.8 177.86-22.66 177.96-22.51 178.06-22.36L178.06-22.36Q178.35-22.12 178.96-21.92 179.57-21.73 179.77-21.48L179.77-21.48Q180.11-21.04 180.28-20.36 180.45-19.68 180.55-18.92 180.64-18.16 180.69-17.41 180.74-16.65 180.84-16.11L180.84-16.11Q180.94-14.99 181.08-13.89 181.23-12.79 181.23-11.67L181.23-11.67Q181.23-10.55 181.13-9.38 181.03-8.2 181.03-7.08L181.03-7.08Q181.03-6.49 181.01-5.62 180.99-4.74 180.6-4.25L180.6-4.25Q180.55-4.05 180.55-3.56L180.55-3.56 180.55-2Q180.55-1.71 180.6-1.42 180.64-1.12 180.64-0.78L180.64-0.78Q180.64-0.24 180.35 0L180.35 0Q180.2-0.05 180.03-0.05 179.86-0.05 179.72-0.05L179.72-0.05Q179.18-0.05 178.94 0.15L178.94 0.15Q178.4 0.1 177.91 0.05 177.42 0 176.88 0L176.88 0Q176.05 0 175.08 0.24L175.08 0.24Q174.88-0.24 174.91-0.78 174.93-1.32 174.69-1.76L174.69-1.76Q174.64-1.9 174.61-2.03 174.59-2.15 174.59-2.29L174.59-2.29Q174.74-2.88 174.74-3.1 174.74-3.32 174.74-3.56L174.74-3.56Q174.74-4.25 174.69-4.96 174.64-5.66 174.74-6.35L174.74-6.35Q174.74-6.59 174.81-6.79 174.88-6.98 174.88-7.23L174.88-7.23Q174.88-7.47 174.78-7.57 174.69-7.67 174.69-7.81L174.69-7.81Q174.69-7.96 174.71-8.3 174.74-8.64 174.83-8.74L174.83-8.74Q174.83-9.13 174.86-9.5 174.88-9.86 174.88-10.21L174.88-10.21Q174.88-10.99 174.83-11.77 174.78-12.55 174.78-13.28L174.78-13.28Q174.78-13.62 174.74-13.72 174.69-13.82 174.64-13.87 174.59-13.92 174.49-13.94 174.39-13.96 174.35-14.11L174.35-14.11Q174.54-16.26 174.2-18.41 173.86-20.56 173.86-22.75L173.86-22.75Q173.86-23.1 173.95-23.27 174.05-23.44 174.2-23.54 174.35-23.63 174.47-23.75 174.59-23.88 174.64-24.12L174.64-24.12Q175.03-24.02 175.32-24.12ZM212.18-18.7L212.38-18.7Q212.48-18.36 212.77-17.97 213.06-17.58 213.06-17.38L213.06-17.38Q212.67-16.46 212.48-15.94 212.28-15.43 211.84-15.04L211.84-15.04Q211.84-14.89 211.55-14.4 211.26-13.92 210.89-13.35 210.52-12.79 210.16-12.28 209.79-11.77 209.69-11.57L209.69-11.57Q209.45-11.18 209.3-10.82 209.16-10.45 208.96-10.11L208.96-10.11Q208.52-9.33 208.06-8.64 207.59-7.96 207.2-7.13L207.2-7.13Q206.96-6.88 206.76-6.59 206.57-6.3 206.33-6.05L206.33-6.05Q205.74-4.98 204.98-4.05 204.23-3.13 203.59-2L203.59-2Q204.13-1.46 204.13-0.63L204.13-0.63Q204.13-0.2 203.88-0.17 203.64-0.15 203.44-0.05L203.44-0.05Q202.96 0.29 202.57 0.34 202.17 0.39 201.93 0.39L201.93 0.39Q201.39 0.39 200.76 0.37 200.12 0.34 199.68 0.44L199.68 0.44Q199.54 0.49 199.34 0.61 199.15 0.73 199.05 0.73L199.05 0.73Q198.66 0.73 198.49 0.61 198.32 0.49 198.02 0.39L198.02 0.39Q197.63-0.05 197.32-0.54 197-1.03 196.66-1.51L196.66-1.51Q196.36-1.86 196.02-2.12 195.68-2.39 195.39-2.78L195.39-2.78Q194.61-3.91 193.8-4.93 193-5.96 192.17-6.98L192.17-6.98Q191.77-7.52 191.31-8.01 190.85-8.5 190.46-8.98L190.46-8.98Q190.07-9.52 189.72-10.11 189.38-10.69 188.99-11.23L188.99-11.23Q188.7-11.72 188.16-12.43 187.62-13.13 187.04-13.87 186.45-14.6 185.84-15.26 185.23-15.92 184.79-16.26L184.79-16.26Q184.79-16.6 184.6-16.75 184.4-16.89 184.16-17.09L184.16-17.09Q184.06-17.33 183.91-17.55 183.77-17.77 183.77-18.07L183.77-18.07Q183.77-18.41 183.91-18.7L183.91-18.7Q184.01-18.9 184.04-19.07 184.06-19.24 184.16-19.43L184.16-19.43Q184.4-20.07 184.87-20.56 185.33-21.04 185.57-21.68L185.57-21.68Q185.62-21.88 185.62-22.05 185.62-22.22 185.72-22.41L185.72-22.41Q185.87-22.75 186.16-23.02 186.45-23.29 186.7-23.63L186.7-23.63Q186.94-24.07 187.18-24.51 187.43-24.95 187.67-25.39L187.67-25.39Q188.36-26.51 189.19-27.56 190.02-28.61 190.75-29.64L190.75-29.64Q191.43-30.62 192.02-31.57 192.6-32.52 193.29-33.5L193.29-33.5Q193.63-33.98 194.07-34.59 194.51-35.21 194.97-35.79 195.44-36.38 195.92-36.89 196.41-37.4 196.9-37.65L196.9-37.65Q197.73-37.74 197.98-37.38 198.22-37.01 198.66-37.01L198.66-37.01Q199.34-36.87 199.59-36.57 199.83-36.28 200.08-36.04L200.08-36.04Q200.71-36.04 201.15-35.79 201.59-35.55 202.03-35.06L202.03-35.06Q201.83-34.52 201.52-34.08 201.2-33.64 200.95-33.15L200.95-33.15Q200.56-33.01 200.39-32.67 200.22-32.32 199.88-32.08L199.88-32.08Q199.34-31.25 198.81-30.44 198.27-29.64 197.73-28.91L197.73-28.91Q197.49-28.61 197.19-28.44 196.9-28.27 196.66-27.93L196.66-27.93Q196.56-27.78 196.51-27.61 196.46-27.44 196.36-27.29L196.36-27.29Q195.78-26.37 195.05-25.49 194.31-24.61 193.78-23.63L193.78-23.63Q193.53-23.29 193.39-22.92 193.24-22.56 193.04-22.22L193.04-22.22Q192.85-21.88 192.48-21.36 192.12-20.85 191.75-20.31 191.38-19.78 191.12-19.24 190.85-18.7 190.85-18.36L190.85-18.36Q190.9-18.12 191.48-17.38 192.07-16.65 192.8-15.82 193.53-14.99 194.19-14.23 194.85-13.48 195-13.33L195-13.33Q195.09-13.09 195.73-12.28 196.36-11.47 197.17-10.52 197.98-9.57 198.76-8.69 199.54-7.81 199.83-7.42L199.83-7.42 200.22-6.79Q200.32-6.84 200.73-7.47 201.15-8.11 201.59-8.89 202.03-9.67 202.39-10.35 202.76-11.04 202.86-11.23L202.86-11.23Q203-11.38 203.35-12.01 203.69-12.65 204.1-13.38 204.52-14.11 204.84-14.75 205.15-15.38 205.2-15.58L205.2-15.58 204.62-15.58Q203.83-15.58 203.08-15.5 202.32-15.43 201.54-15.19L201.54-15.19Q201.2-15.23 200.95-15.38 200.71-15.53 200.37-15.67L200.37-15.67Q200.22-16.16 200.25-16.36 200.27-16.55 200.22-16.65L200.22-16.65Q200.17-16.85 200.1-16.94 200.03-17.04 200.03-17.24L200.03-17.24Q200.03-17.58 199.93-17.8 199.83-18.02 199.73-18.31L199.73-18.31Q199.73-18.51 199.76-18.7 199.78-18.9 199.68-19.04L199.68-19.04Q199.78-19.92 199.54-20.31L199.54-20.31Q199.54-21 199.73-21.19 199.93-21.39 200.03-21.78L200.03-21.78Q200.47-21.63 200.78-21.85 201.1-22.07 201.44-22.07L201.44-22.07Q202.22-22.07 202.71-22.31L202.71-22.31Q203.15-22.36 203.62-22.36 204.08-22.36 204.52-22.46L204.52-22.46Q204.76-22.51 204.93-22.56 205.1-22.61 205.35-22.66L205.35-22.66Q205.64-22.71 205.98-22.71 206.33-22.71 206.62-22.71L206.62-22.71Q207.4-22.8 208.18-22.83 208.96-22.85 209.74-22.9L209.74-22.9Q209.99-22.8 210.21-22.75 210.43-22.71 210.62-22.61L210.62-22.61Q210.77-22.51 210.87-22.39 210.96-22.27 211.21-22.22L211.21-22.22Q211.45-21.97 211.55-21.73L211.55-21.73Q211.45-21.29 211.6-21.09L211.6-21.09Q211.35-20.85 211.33-20.43 211.31-20.02 211.26-19.68L211.26-19.68Q211.6-19.58 211.84-19.14 212.09-18.7 212.18-18.7L212.18-18.7ZM236.64-36.28L237.13-36.13Q237.72-36.28 237.96-36.25 238.21-36.23 238.45-36.18L238.45-36.18Q238.74-35.99 238.94-35.69L238.94-35.69Q238.94-34.67 238.92-33.67 238.89-32.67 238.89-31.64L238.89-31.64Q238.89-29.79 238.94-27.93 238.99-26.07 238.94-24.22L238.94-24.22Q239.04-23.78 238.99-23.73 238.94-23.68 238.94-23.58L238.94-23.58Q238.94-21.73 239.04-19.92 239.14-18.12 239.14-16.26L239.14-16.26 239.14-9.77Q239.14-7.67 239.26-5.62 239.38-3.56 239.38-1.51L239.38-1.51Q239.38-1.32 239.14-0.98L239.14-0.98Q239.04-0.59 238.84-0.34L238.84-0.34Q238.4-0.29 238.01-0.49L238.01-0.49Q237.82-0.49 237.74-0.37 237.67-0.24 237.52-0.15L237.52-0.15Q237.13-0.15 236.89 0.05 236.64 0.24 236.3 0.24L236.3 0.24Q236.01 0.24 235.74 0.17 235.47 0.1 235.13 0.1L235.13 0.1Q235.03 0.1 234.84 0.27 234.64 0.44 234.55 0.49L234.55 0.49Q234.3 0.49 234.11 0.56 233.91 0.63 233.67 0.63L233.67 0.63Q233.42 0.44 233.45 0.05 233.47-0.34 233.13-0.44L233.13-0.44Q233.13-0.68 233.15-0.98 233.18-1.27 233.18-1.56L233.18-1.56Q233.18-3.47 233.08-5.4 232.98-7.32 232.93-9.23L232.93-9.23Q232.89-10.06 232.91-10.86 232.93-11.67 232.93-12.5L232.93-12.5Q232.93-12.94 232.93-13.38 232.93-13.82 232.84-14.21L232.84-14.21Q232.54-14.26 232.32-14.14 232.1-14.01 231.86-14.01L231.86-14.01Q230.83-13.67 230.49-13.33L230.49-13.33Q230.2-13.33 230-13.23 229.81-13.13 229.56-13.04L229.56-13.04Q229.17-12.94 228.81-12.87 228.44-12.79 228.05-12.65L228.05-12.65Q227.81-12.55 227.56-12.45 227.32-12.35 227.07-12.26L227.07-12.26Q226.54-12.06 226-11.89 225.46-11.72 224.93-11.52L224.93-11.52Q224.39-11.43 224-11.23 223.61-11.04 223.22-10.84L223.22-10.84Q222.88-8.54 222.85-6.47 222.83-4.39 222.97-2.34L222.97-2.34Q222.88-2.05 222.88-1.68 222.88-1.32 222.73-1.07L222.73-1.07Q222.19-0.93 222.02-1.05 221.85-1.17 221.65-1.27L221.65-1.27Q221.46-1.22 221.34-1.07 221.22-0.93 221.12-0.83L221.12-0.83Q220.73-0.83 220.51-0.66 220.29-0.49 220.09-0.39L220.09-0.39Q219.95-0.34 219.8-0.39 219.65-0.44 219.46-0.34L219.46-0.34Q218.97-0.34 218.99-0.46 219.02-0.59 218.87-0.59L218.87-0.59Q218.68-0.59 218.6-0.42 218.53-0.24 218.33-0.15L218.33-0.15Q218.14-0.05 217.89-0.02 217.65 0 217.41 0.1L217.41 0.1Q217.16-0.15 217.16-0.44 217.16-0.73 216.92-0.98L216.92-0.98Q216.82-1.66 216.8-2.32 216.77-2.98 216.63-3.66L216.63-3.66Q216.72-5.03 216.7-5.86 216.67-6.69 216.67-7.57L216.67-7.57Q216.67-8.35 216.63-9.13 216.58-9.91 216.53-10.69L216.53-10.69Q216.43-12.11 216.36-13.57 216.28-15.04 216.28-16.5L216.28-16.5Q216.28-17.72 216.41-18.9 216.53-20.07 216.53-21.29L216.53-21.29Q216.53-22.12 216.55-22.92 216.58-23.73 216.58-24.56L216.58-24.56Q216.58-25.24 216.55-25.9 216.53-26.56 216.53-27.2L216.53-27.2Q216.53-27.93 216.63-28.64 216.72-29.35 216.72-30.03L216.72-30.03Q216.72-30.86 216.63-31.67 216.53-32.47 216.53-33.3L216.53-33.3Q216.53-33.54 216.58-33.76 216.63-33.98 216.63-34.23L216.63-34.23Q216.58-34.77 216.67-34.89 216.77-35.01 216.87-35.21L216.87-35.21Q217.11-35.25 217.41-35.35 217.7-35.45 217.94-35.35L217.94-35.35Q218.24-35.64 218.75-35.64 219.26-35.64 219.51-35.99L219.51-35.99Q219.85-35.94 219.97-35.96 220.09-35.99 220.19-35.99L220.19-35.99Q220.63-35.89 220.65-36.01 220.68-36.13 220.82-36.13L220.82-36.13Q221.07-36.13 221.58-36.11 222.09-36.08 222.29-35.89L222.29-35.89Q222.78-33.3 222.83-30.62 222.88-27.93 222.88-25.29L222.88-25.29Q222.88-24.61 222.92-23.9 222.97-23.19 222.88-22.51L222.88-22.51Q222.88-22.22 222.83-21.95 222.78-21.68 222.78-21.39L222.78-21.39Q222.78-20.56 222.68-19.65 222.58-18.75 222.58-17.92L222.58-17.92Q223.17-17.58 223.58-17.7 224-17.82 224.39-17.97L224.39-17.97Q224.88-18.12 225.29-18.29 225.71-18.46 226.15-18.6L226.15-18.6Q226.54-18.8 227-18.92 227.47-19.04 227.86-19.14L227.86-19.14Q229.13-19.58 230.35-20.21 231.57-20.85 232.84-21.24L232.84-21.24Q232.74-23.93 232.74-26.59 232.74-29.25 232.74-31.88L232.74-31.88Q232.74-32.62 232.74-33.4 232.74-34.18 232.84-34.91L232.84-34.91Q232.89-35.11 232.96-35.23 233.03-35.35 233.03-35.6L233.03-35.6Q233.18-35.84 233.37-35.94 233.57-36.04 233.67-36.23L233.67-36.23Q233.76-36.13 233.89-36.06 234.01-35.99 234.15-35.94L234.15-35.94Q234.55-36.04 234.62-36.08 234.69-36.13 234.79-36.18L234.79-36.18Q235.03-36.28 235.42-36.28 235.81-36.28 236.06-36.28L236.06-36.28 236.64-36.28ZM265.26-34.91L265.26-34.91Q265.16-34.72 265.18-34.52 265.21-34.33 265.21-34.08L265.21-34.08Q265.11-33.5 265.21-33.5 265.3-33.5 265.3-33.4L265.3-33.4 264.96-32.91Q264.96-32.62 264.84-32.37 264.72-32.13 264.77-31.79L264.77-31.79Q264.62-31.54 264.5-31.3 264.38-31.05 264.13-30.81L264.13-30.81 263.5-30.81Q262.96-30.81 262.35-30.74 261.74-30.66 261.15-30.66L261.15-30.66Q261.06-30.66 260.91-30.69 260.76-30.71 260.62-30.71L260.62-30.71Q260.52-30.71 260.37-30.69 260.23-30.66 260.03-30.66L260.03-30.66Q259.3-30.66 258.59-30.74 257.88-30.81 257.1-30.81L257.1-30.81Q256.91-30.81 256.71-30.81 256.52-30.81 256.27-30.76L256.27-30.76Q256.22-29.93 256.2-29.08 256.17-28.22 256.17-27.34L256.17-27.34Q256.17-27.1 256.12-26.83 256.08-26.56 256.08-26.32L256.08-26.32Q256.03-25.68 256-25.1 255.98-24.51 255.98-23.88L255.98-23.88Q255.98-22.51 256-21.14 256.03-19.78 256.08-18.36L256.08-18.36Q256.12-17.63 256.17-16.94 256.22-16.26 256.22-15.53L256.22-15.53Q256.22-13.87 256.17-12.23 256.12-10.6 256.12-8.94L256.12-8.94Q256.12-8.4 256.08-7.93 256.03-7.47 256.03-6.93L256.03-6.93Q256.03-5.81 256.08-4.69 256.12-3.56 256.12-2.44L256.12-2.44Q256.12-1.9 256.1-1.37 256.08-0.83 256.08-0.29L256.08-0.29Q255.83 0.1 255.73 0.39 255.64 0.68 255.15 0.68L255.15 0.68Q254.81 0.59 254.83 0.46 254.86 0.34 254.76 0.24L254.76 0.24Q254.32 0.2 254.1 0.32 253.88 0.44 253.59 0.54L253.59 0.54Q253.44 0.49 253.27 0.49 253.1 0.49 252.95 0.49L252.95 0.49Q252.85 0.49 252.76 0.56 252.66 0.63 252.32 0.63L252.32 0.63Q252.02 0.68 251.97 0.54 251.93 0.39 251.68 0.39L251.68 0.39Q251.44 0.54 251.12 0.61 250.8 0.68 250.51 0.68L250.51 0.68Q250.22 0.49 250.24 0.32 250.27 0.15 250.17-0.05L250.17-0.05Q250.12-0.15 250-0.32 249.87-0.49 249.78-0.59L249.78-0.59Q249.87-1.27 249.92-1.81 249.97-2.34 249.97-2.98L249.97-2.98Q249.97-4.25 249.87-5.47 249.78-6.69 249.78-7.96L249.78-7.96Q249.78-8.35 249.87-8.79 249.97-9.23 249.97-9.72L249.97-9.72Q249.87-10.11 249.92-10.18 249.97-10.25 249.97-10.35L249.97-10.35Q249.97-10.64 249.95-10.94 249.92-11.23 249.92-11.52L249.92-11.52Q249.92-12.11 249.95-12.7 249.97-13.28 249.97-13.87L249.97-13.87Q249.97-14.11 249.95-14.38 249.92-14.65 249.92-14.89L249.92-14.89Q249.87-15.33 249.9-15.82 249.92-16.31 249.92-16.8L249.92-16.8Q249.92-19.14 249.85-21.44 249.78-23.73 249.78-26.07L249.78-26.07Q249.78-27.25 249.9-28.39 250.02-29.54 250.02-30.71L250.02-30.71Q250.02-30.86 249.92-31.1 249.83-31.35 249.73-31.45L249.73-31.45Q249.48-31.45 249.26-31.47 249.04-31.49 248.8-31.49L248.8-31.49Q248.26-31.49 247.78-31.35L247.78-31.35Q246.85-31.3 245.99-31.23 245.14-31.15 244.26-31.1L244.26-31.1Q243.67-31.15 243.55-31.13 243.43-31.1 243.28-31.1L243.28-31.1Q242.89-31.1 242.7-31.3L242.7-31.3 242.7-31.93Q242.4-32.52 242.45-32.57 242.5-32.62 242.5-32.71L242.5-32.71Q242.5-32.86 242.23-33.03 241.96-33.2 241.96-33.59L241.96-33.59Q241.92-33.98 241.77-34.18 241.62-34.38 241.62-34.57L241.62-34.57Q241.62-34.91 241.77-35.35L241.77-35.35Q242.21-35.6 242.62-35.69 243.04-35.79 243.58-35.94L243.58-35.94Q243.87-36.04 244.11-36.13 244.36-36.23 244.65-36.28L244.65-36.28Q244.99-36.33 245.33-36.33 245.68-36.33 246.02-36.38L246.02-36.38Q246.75-36.52 247.56-36.62 248.36-36.72 249.09-36.72L249.09-36.72Q249.78-36.72 250.46-36.55 251.14-36.38 251.68-36.38L251.68-36.38Q252.46-36.38 253.17-36.28 253.88-36.18 254.66-36.18L254.66-36.18Q254.76-36.18 254.98-36.11 255.2-36.04 255.49-36.04L255.49-36.04 260.23-36.04Q260.62-35.94 260.79-35.99 260.96-36.04 261.11-36.04L261.11-36.04Q261.5-36.04 261.84-35.99 262.18-35.94 262.57-35.94L262.57-35.94Q262.91-35.94 263.11-35.99L263.11-35.99Q263.5-35.94 263.84-35.77 264.18-35.6 264.62-35.6L264.62-35.6Q264.82-35.45 264.91-35.23 265.01-35.01 265.26-34.91ZM277.07-35.99L277.07-35.99Q277.17-35.79 277.29-35.72 277.41-35.64 277.46-35.4L277.46-35.4Q277.8-35.16 278-35.03 278.19-34.91 278.24-34.62L278.24-34.62Q278.68-34.28 278.75-34.18 278.83-34.08 278.88-33.94L278.88-33.94Q279.12-33.74 279.34-33.59 279.56-33.45 279.66-33.15L279.66-33.15Q280.05-32.81 280.15-32.62 280.24-32.42 280.29-32.18L280.29-32.18Q280.1-31.84 279.51-31.25 278.93-30.66 278.19-30 277.46-29.35 276.78-28.74 276.09-28.13 275.7-27.78L275.7-27.78Q275.6-27.59 275.46-27.44 275.31-27.29 275.21-27.1L275.21-27.1Q274.92-26.86 274.68-26.59 274.43-26.32 274.09-26.17L274.09-26.17Q273.6-25.49 272.72-24.83 271.85-24.17 271.55-23.54L271.55-23.54Q271.6-23.39 271.77-23.24 271.94-23.1 272.04-23L272.04-23Q272.43-22.61 272.97-22.29 273.51-21.97 273.9-21.58L273.9-21.58Q274.29-21.24 274.68-20.92 275.07-20.61 275.46-20.26L275.46-20.26Q275.65-20.07 275.95-19.68L275.95-19.68Q276.43-19.29 276.9-18.97 277.36-18.65 277.8-18.26L277.8-18.26Q278.73-17.48 279.61-16.67 280.49-15.87 281.46-15.09L281.46-15.09 281.85-14.65Q281.85-14.26 282.07-13.75 282.29-13.23 282.49-12.89L282.49-12.89Q282.39-12.4 282.51-12.28 282.64-12.16 282.73-12.06L282.73-12.06Q282.68-11.13 282.78-10.84L282.78-10.84Q281.95-10.11 281.24-9.5 280.54-8.89 280-8.3L280-8.3Q279.56-7.76 279.1-7.35 278.63-6.93 278.1-6.45L278.1-6.45Q277.8-6.05 277.61-5.91L277.61-5.91Q277.26-5.57 276.92-5.37L276.92-5.37Q276.34-4.83 275.78-4.35 275.21-3.86 274.68-3.37L274.68-3.37Q274.29-3.03 273.94-2.71 273.6-2.39 273.26-2L273.26-2Q272.97-1.71 272.6-1.32 272.24-0.93 271.85-0.68L271.85-0.68Q271.7-0.39 271.45-0.17 271.21 0.05 271.01 0.29L271.01 0.29Q270.67 0.49 270.38 0.68 270.09 0.88 269.7 1.07L269.7 1.07Q269.31 0.78 268.94 0.54 268.57 0.29 268.13 0.2L268.13 0.2Q267.84-0.05 267.69-0.29 267.55-0.54 267.16-0.63L267.16-0.63Q267.06-0.78 266.94-0.95 266.82-1.12 266.72-1.32L266.72-1.32Q266.13-1.37 265.79-2.05L265.79-2.05Q265.89-2.34 266.06-2.49 266.23-2.64 266.13-3.03L266.13-3.03Q266.43-3.52 266.84-3.88 267.26-4.25 267.65-4.64L267.65-4.64Q268.09-5.03 268.45-5.44 268.82-5.86 269.26-6.25L269.26-6.25Q269.5-6.49 269.75-6.71 269.99-6.93 270.28-7.18L270.28-7.18Q270.82-7.71 271.38-8.18 271.94-8.64 272.53-9.18L272.53-9.18Q273.31-9.96 274.14-10.67 274.97-11.38 275.65-12.26L275.65-12.26Q275.6-12.45 275.51-12.52 275.41-12.6 275.36-12.74L275.36-12.74Q274.58-13.48 273.82-14.18 273.07-14.89 272.19-15.43L272.19-15.43Q271.89-15.72 271.8-15.92L271.8-15.92Q270.92-16.55 270.11-17.33 269.31-18.12 268.33-18.65L268.33-18.65Q268.13-18.9 267.87-19.07 267.6-19.24 267.35-19.38L267.35-19.38Q267.21-19.63 267.04-19.8 266.86-19.97 266.62-20.07L266.62-20.07Q266.23-20.41 266.11-20.63 265.99-20.85 265.69-20.9L265.69-20.9Q265.6-21.14 265.38-21.29 265.16-21.44 264.91-21.63L264.91-21.63Q264.81-21.92 264.62-22.12L264.62-22.12Q264.57-22.51 264.67-22.68 264.76-22.85 264.81-22.95L264.81-22.95Q264.76-23.24 264.55-23.39 264.33-23.54 264.33-23.88L264.33-23.88Q264.33-24.07 264.45-24.15 264.57-24.22 264.62-24.37L264.62-24.37 264.76-25.1Q265.16-25.39 265.42-25.81 265.69-26.22 266.13-26.46L266.13-26.46Q266.62-27.2 267.35-27.69L267.35-27.69Q267.6-28.08 267.96-28.32 268.33-28.56 268.57-28.96L268.57-28.96Q268.96-29.2 269.23-29.49 269.5-29.79 269.89-30.03L269.89-30.03Q269.99-30.22 270.11-30.35 270.23-30.47 270.28-30.62L270.28-30.62Q271.6-31.88 272.6-32.81 273.6-33.74 274.68-34.67L274.68-34.67Q274.97-34.91 275.26-35.21 275.56-35.5 275.9-35.74L275.9-35.74Q276-35.84 276.14-35.84 276.29-35.84 276.43-35.94L276.43-35.94Q277.02-35.94 277.07-35.99Z" opacity="1" transform="matrix(1,0,0,1,0,0)" fill="#afafe1" class="wordmark-text-0" data-fill-palette-color="primary" id="text-0"></path></svg></g></svg></g></svg></g></svg></g><g transform="matrix(1,0,0,1,143.44416439399328,0)"><svg viewBox="0 0 108.63167121201342 78.7182550618075" height="78.7182550618075" width="108.63167121201342"><g><svg xmlns="http://www.w3.org/2000/svg" xmlns:xlink="http://www.w3.org/1999/xlink" version="1.1" x="8" y="0" viewBox="0 0 99.99900000000001 84.979" enable-background="new 0 0 100 100" xml:space="preserve" height="78.7182550618075" width="92.63167121201342" class="icon-icon-0" data-fill-palette-color="accent" id="icon-0"><g fill="#7fc37e" data-fill-palette-color="accent"><path d="M92.913 7.087v61.004H7.086V7.087H92.913M96.921 0H3.078C1.378 0 0 1.378 0 3.078V72.1c0 1.7 1.378 3.078 3.078 3.078h93.843c1.701 0 3.078-1.378 3.078-3.078V3.078C99.999 1.378 98.622 0 96.921 0L96.921 0z" fill="#7fc37e" data-fill-palette-color="accent"></path></g><g fill="#7fc37e" data-fill-palette-color="accent"><path d="M55.724 54.294V33.5c0-0.541-0.438-0.979-0.979-0.979H37.13c-0.54 0-0.978 0.438-0.978 0.979v4.167c0 0.54 0.438 0.978 0.978 0.978h7.69v15.649h-7.69c-0.54 0-0.978 0.438-0.978 0.979v4.167c0 0.54 0.438 0.979 1.147 0.979h25.737c0.371 0 0.81-0.438 0.81-0.979v-4.167c0-0.541-0.438-0.979-0.979-0.979H55.724z" fill="#7fc37e" data-fill-palette-color="accent"></path><circle fill-rule="evenodd" clip-rule="evenodd" cx="50.191" cy="22.118" r="6.8" fill="#7fc37e" data-fill-palette-color="accent"></circle></g><g fill="#7fc37e" data-fill-palette-color="accent"><path d="M87.685 83.967c0 0.559-0.453 1.012-1.013 1.012H13.328c-0.559 0-1.012-0.453-1.012-1.012V80.32c0-0.559 0.453-1.012 1.012-1.012h73.344c0.56 0 1.013 0.453 1.013 1.012V83.967z" fill="#7fc37e" data-fill-palette-color="accent"></path></g></svg></g></svg></g><g><rect width="143.44416439399328" height="5.13668124364184" y="72.58157381816565" x="252.0758356060067" fill="#7fc37e" data-fill-palette-color="accent"></rect><rect width="143.44416439399328" height="5.13668124364184" y="72.58157381816565" x="0" fill="#7fc37e" data-fill-palette-color="accent"></rect><rect width="143.44416439399328" height="5.13668124364184" y="62.308211330881974" x="252.0758356060067" fill="#7fc37e" data-fill-palette-color="accent"></rect><rect width="143.44416439399328" height="5.13668124364184" y="62.308211330881974" x="0" fill="#7fc37e" data-fill-palette-color="accent"></rect></g></svg></g><defs></defs></svg><rect width="395.52" height="149.12472817597447" fill="none" stroke="none" visibility="hidden"></rect></g></svg></g></svg>